<svg preserveAspectRatio="none" overflow="visible" style="display: block;" width="18.1667" height="18.1668" viewBox="0 0 18.1667 18.1668" fill="none" xmlns="http://www.w3.org/2000/svg">
<g id="SVGRepo_iconCarrier">
<path id="Vector" d="M14.9167 11.5834V9.03136C14.9167 7.21918 13.4476 5.75011 11.6354 5.75011H6.53125C4.71907 5.75011 3.25 7.21918 3.25 9.03136V11.5834C3.25 14.8051 5.86168 17.4168 9.08333 17.4168C12.305 17.4168 14.9167 14.8051 14.9167 11.5834Z" stroke="white" stroke-width="1.5"/>
<path id="Vector_2" d="M12.8333 6.16678V5.33345C12.8333 3.26238 11.1544 1.58345 9.08333 1.58345C7.01227 1.58345 5.33333 3.26238 5.33333 5.33345V6.16678" stroke="white" stroke-width="1.5"/>
<path id="Vector_3" opacity="0.5" d="M14.9167 10.7501H17.4167" stroke="white" stroke-width="1.5" stroke-linecap="round"/>
<path id="Vector_4" opacity="0.5" d="M3.25 10.7501H0.75" stroke="white" stroke-width="1.5" stroke-linecap="round"/>
<path id="Vector_5" opacity="0.5" d="M11.1667 2.00011L13.25 0.750113" stroke="white" stroke-width="1.5" stroke-linecap="round"/>
<path id="Vector_6" opacity="0.5" d="M7 2.00011L4.91667 0.750113" stroke="white" stroke-width="1.5" stroke-linecap="round"/>
<path id="Vector_7" opacity="0.5" d="M16.1667 15.7503L14.5 15.0836" stroke="white" stroke-width="1.5" stroke-linecap="round"/>
<path id="Vector_8" opacity="0.5" d="M16.1667 5.74995L14.5 6.41661" stroke="white" stroke-width="1.5" stroke-linecap="round"/>
<path id="Vector_9" opacity="0.5" d="M2 15.7503L3.66667 15.0836" stroke="white" stroke-width="1.5" stroke-linecap="round"/>
<path id="Vector_10" opacity="0.5" d="M2 5.74995L3.66667 6.41661" stroke="white" stroke-width="1.5" stroke-linecap="round"/>
<path id="Vector_11" opacity="0.5" d="M9.08333 17.0001V11.5834" stroke="white" stroke-width="1.5" stroke-linecap="round"/>
</g>
</svg>
